<svg id="Layer_1" data-name="Layer 1" xmlns="http://www.w3.org/2000/svg" viewBox="0 0 512 512"><title>pointing-circle-touch-hand-glyph</title><path d="M238.7,220.73A110.36,110.36,0,1,1,349.06,110.36,110.49,110.49,0,0,1,238.7,220.73Zm0-216.94A106.57,106.57,0,1,0,345.27,110.36,106.69,106.69,0,0,0,238.7,3.79Z" fill="#9b999f"/><circle cx="238.7" cy="110.37" r="57.53" fill="#9b999f"/><path d="M444.4,302.82a29.41,29.41,0,0,0-58.82,0V280.27a29.41,29.41,0,0,0-58.82,0V267a29.41,29.41,0,0,0-58.82,0V119.93a29.41,29.41,0,1,0-58.82,0V325.81c0,16.24-14.4,35.63-29.41,29.41-20.38-8.44-62.39-62.39-62.39-62.39a29.41,29.41,0,0,0-41.59,0c-11.49,11.49-10.1,28.87,0,41.59C112,380.22,187.57,475,249.05,498.95c48.28,18.78,124.6,21.54,163.28-20.51,27.17-29.54,31.32-62.84,32-120.93,0-32.5.12-54.69.12-54.69Z" fill="#434040"/></svg>